<?xml version="1.0" encoding="UTF-8" standalone="no"?>
<!-- Created with Inkscape (http://www.inkscape.org/) -->

<svg
   version="1.1"
   id="svg41"
   width="694"
   height="694"
   viewBox="0 0 1388.0004 1388.0004"
   xmlns="http://www.w3.org/2000/svg"
   xmlns:svg="http://www.w3.org/2000/svg">
  <defs
     id="defs45">
    <clipPath
       clipPathUnits="userSpaceOnUse"
       id="clipPath63">
      <path
         d="M 0,0 H 1302.8032 V 746.38104 H 0 Z"
         id="path61" />
    </clipPath>
  </defs>
  <g
     id="g49"
     transform="matrix(1.3333333,0,0,-1.3333333,-8.2038948e-5,995.1747)">
    <circle
       style="fill:#ffffff;stroke-width:1.5;fill-opacity:1"
       id="path972"
       cx="520.50024"
       cy="-225.88086"
       r="520.50018"
       transform="scale(1,-1)" />
    <g
       id="g53"
       transform="matrix(3.0000009,0,0,-3.0000009,130.12492,449.75595)">
      <g
         id="g55">
        <g
           id="g57">
          <g
             id="g59"
             clip-path="url(#clipPath63)">
            <g
               id="g65"
               transform="matrix(0.19976157,0,0,0.19996488,4.922337e-5,-3.9810949e-5)">
              <g
                 id="g67">
                <g
                   id="g69">
                  <g
                     id="g71"
                     transform="matrix(-1.0000119,0,0,0.9999959,573.02456,-0.12729948)">
                    <path
                       d="m 479.292,400.64 c 0.207,0.127 0.404,0 0.59,-0.38 l 0.51,-0.5 0.76,-0.35 1.79,-1.69 c 0.447,-0.053 0.65,-0.183 0.61,-0.39 7.547,-6.44 14.684,-13.32 21.41,-20.64 0.327,0.12 0.55,-0.097 0.67,-0.65 l 0.38,-0.32 c 0.34,0.013 0.54,-0.22 0.6,-0.7 0.107,-0.133 0.234,-0.237 0.38,-0.31 0.207,0.12 0.384,0.103 0.53,-0.05 0.24,-0.267 0.267,-0.483 0.08,-0.65 0.334,0.087 0.597,0.01 0.79,-0.23 0.194,-0.24 0.24,-0.5 0.14,-0.78 l 0.25,-0.3 c 0.2,0.193 0.397,0.207 0.59,0.04 0.214,-0.187 0.237,-0.46 0.07,-0.82 l 7.89,-9.18 c 0.22,-0.047 0.367,-0.12 0.44,-0.22 0.134,-0.187 0.14,-0.377 0.02,-0.57 l 0.23,-0.26 c 0.094,0.007 0.184,0.003 0.27,-0.01 0.107,-0.024 0.182,-0.116 0.18,-0.22 l 0.02,-0.43 0.56,-0.75 c 0.88,-0.753 1.5,-1.57 1.86,-2.45 12.18,-14.793 22.684,-30.36 31.51,-46.7 2.914,-5.387 5.487,-10.71 7.72,-15.97 0.113,-0.27 0.475,-0.317 0.653,-0.085 0.045,0.059 0.072,0.131 0.077,0.205 0.214,2.973 0.29,5.643 0.23,8.01 -0.346,12.427 -0.793,20.657 -1.34,24.69 -0.52,3.887 -0.873,6.66 -1.06,8.32 -0.386,3.413 -0.766,6.187 -1.14,8.32 -3.56,20.493 -8.866,40.643 -15.92,60.45 -6.633,18.62 -14.786,36.797 -24.46,54.53 -1.313,2.4 -2.356,4.23 -3.13,5.49 -1.72,2.807 -2.773,4.63 -3.16,5.47 -1.19,2.59 -2.96,4.74 -5,7.96 -2.906,4.613 -5.213,8.063 -6.92,10.35 -0.266,0.36 -0.503,0.74 -0.71,1.14 -0.223,0.427 -0.406,0.753 -0.49,0.87 -4.646,6.447 -9.78,13.163 -15.4,20.15 -0.966,1.213 -1.986,2.35 -3.06,3.41 -0.265,0.259 -0.504,0.551 -0.71,0.87 -2.02,3.03 -5.24,5.92 -7.6,8.65 -4.246,4.927 -8.453,9.283 -12.62,13.07 -7.553,6.867 -11.53,10.47 -11.93,10.81 -19.76,17.04 -52.539,31.363 -71.632,42.97 -19.98,12.147 -40.873,22.15 -62.68,30.01 -1.74,0.627 -2.7,0.993 -2.88,1.1 -2.12,1.21 -3.75,0.88 -5.91,2.08 -0.9,0.507 -1.9,0.82 -3,0.94 -1.087,0.12 -2.433,0.613 -4.04,1.48 -0.377,0.199 -0.783,0.33 -1.2,0.39 l -1.82,0.23 c -0.516,0.066 -1.014,0.225 -1.47,0.47 -1.76,0.94 -3.637,1.457 -5.63,1.55 -0.367,0.02 -1.517,0.437 -3.45,1.25 -0.657,0.272 -1.347,0.447 -2.05,0.52 -1.853,0.187 -3.88,0.723 -6.08,1.61 -0.616,0.245 -1.264,0.387 -1.92,0.42 -2.387,0.12 -4.857,0.683 -7.41,1.69 -0.457,0.179 -0.94,0.28 -1.43,0.3 -2.607,0.1 -5.47,0.693 -8.59,1.78 -0.45,0.159 -0.927,0.243 -1.41,0.25 -4.46,0.073 -8.54,0.643 -12.24,1.71 -0.756,0.212 -1.538,0.31 -2.32,0.29 -2.667,-0.087 -4.85,0.013 -6.55,0.3 -2.087,0.353 -4.257,0.57 -6.51,0.65 -11.627,0.38 -23.577,0.397 -35.85,0.05 -4.44,-0.13 -8.19,-1.16 -12.72,-0.98 -0.139,0.007 -0.277,-0.003 -0.41,-0.03 l -12.34,-2.3 h -0.01 l -9.38,-1.86 c -0.04,-0.007 -0.077,-0.017 -0.11,-0.03 -2.8,-1.04 -5.007,-1.637 -6.62,-1.79 -0.297,-0.033 -0.586,-0.121 -0.85,-0.26 -0.893,-0.48 -3.073,-1.187 -6.54,-2.12 -4.307,-1.16 -11.243,-3.713 -20.81,-7.66 -10.647,-4.387 -20.7,-9.3 -30.16,-14.74 C 83.697,604.237 76.287,599.28 68.2,593.24 57.367,585.153 47.677,575.76 39.13,565.06 29.217,552.66 20.983,538.847 14.43,523.62 8.643,510.167 4.89,498.117 3.17,487.47 2.13,481.05 1.52,477.543 1.34,476.95 1.211,476.521 1.115,475.756 1.07,474.8 L 0,450.6 v -2.04 c 0.3,-4.58 -0.33,-9.51 0.61,-13.9 0.6,-2.79 0.41,-5 0.48,-7.9 0.013,-0.503 0.108,-1 0.28,-1.47 0.533,-1.447 0.783,-2.817 0.75,-4.11 -0.06,-2.17 0.91,-3.51 0.91,-5.66 -0.01,-1.95 0.98,-3.18 1.1,-5.15 0.013,-0.253 0.167,-0.953 0.46,-2.1 2.207,-8.627 5.017,-16.967 8.43,-25.02 4.58,-10.8 9.707,-20.91 15.38,-30.33 14.327,-23.8 31.617,-44.597 51.87,-62.39 9.913,-8.707 20.513,-17.187 31.8,-25.44 24.12,-17.647 37.68,-27.593 40.68,-29.84 9.547,-7.14 18.817,-14.793 27.81,-22.96 11.54,-10.47 18.96,-20.55 24.69,-34.81 2.76,-6.893 4.597,-12.29 5.51,-16.19 0.093,-0.419 0.153,-0.841 0.18,-1.26 0.12,-1.96 0.453,-3.793 1,-5.5 0.159,-0.504 0.24,-1.026 0.24,-1.55 0,-0.053 0,-3.247 0,-9.58 0.007,-2.447 -0.143,-4.183 -0.45,-5.21 -0.68,-2.34 -0.57,-4.23 -1.62,-6.83 -5.14,-12.65 -18.75,-18.17 -31.79,-15.12 -11.08,2.59 -20.27,9.41 -29.17,16.92 -6.28,5.293 -11.733,9.917 -16.36,13.87 -14.3,12.213 -29.213,23.05 -44.74,32.51 -11.32,6.893 -22.353,12.303 -33.1,16.23 -3.01,1.1 -6.06,1.57 -8.9,2.85 -0.053,0.027 -0.11,0.047 -0.17,0.06 l -10.14,2.19 c -0.166,0.033 -0.334,0.047 -0.5,0.04 -2.107,-0.107 -4.063,0.107 -5.87,0.64 -0.305,0.093 -0.625,0.137 -0.95,0.13 l -6.83,-0.11 c -0.169,-0.012 -0.261,-0.202 -0.167,-0.343 0.016,-0.022 0.035,-0.042 0.057,-0.057 8.713,-5.527 16.617,-12.007 23.71,-19.44 8.66,-9.06 16.13,-18.3 21.74,-28.79 3.373,-6.32 5.963,-13.513 7.77,-21.58 0.287,-1.3 0.43,-2.537 0.43,-3.71 0,-1.24 0.97,-3.14 0.93,-4.9 -0.06,-2.76 0.067,-5.15 0.38,-7.17 1,-6.33 0.48,-12.68 0.71,-18.67 0.04,-1.16 0.213,-2.25 0.52,-3.27 0.67,-2.26 0.09,-4.7 0.84,-6.82 0.56,-1.56 0.42,-3.26 0.76,-4.75 5.42,-23.807 17.727,-42.857 36.92,-57.15 12.86,-9.573 27.503,-16.61 43.93,-21.11 3.41,-0.93 8.45,-1.42 11.5,-2.5 0.509,-0.185 1.045,-0.27 1.58,-0.25 2.72,0.093 5.297,-0.127 7.73,-0.66 0.625,-0.14 1.265,-0.213 1.91,-0.22 5.927,-0.067 9.98,-0.07 12.16,-0.01 18.627,0.487 36.087,5.14 52.38,13.96 20.64,11.17 37.88,26.54 48.7,47.72 5.347,10.473 8.933,20.947 10.76,31.42 0.207,1.213 0.61,3.55 1.21,7.01 0.5,2.853 0.797,5.203 0.89,7.05 0.46,9.227 0.43,18.593 -0.09,28.1 -0.08,1.447 -0.277,2.62 -0.59,3.52 -0.51,1.45 -0.31,2.98 -0.61,4.74 -1.727,10.247 -4.617,20.267 -8.67,30.06 -6.2,14.987 -13.967,29.053 -23.3,42.2 -13.38,18.847 -29.05,36.587 -47.01,53.22 -14.087,13.053 -22.75,21.03 -25.99,23.93 -7.5,6.72 -13.397,12.387 -17.69,17 -7.893,8.493 -13.287,14.647 -16.18,18.46 -5.147,6.787 -9.943,13.903 -14.39,21.35 -0.185,0.265 -0.587,0.231 -0.725,-0.062 -0.042,-0.09 -0.051,-0.192 -0.025,-0.288 3.167,-9.047 7.283,-18.32 12.35,-27.82 10.69,-20.04 23.35,-38.85 38.65,-59.99 10.913,-15.073 18.583,-25.843 23.01,-32.31 6.793,-9.907 12.393,-19.22 16.8,-27.94 3.593,-7.12 8.06,-16.913 13.4,-29.38 3.627,-8.467 6.337,-16.66 8.13,-24.58 0.66,-2.947 1.007,-5.49 1.04,-7.63 0.033,-1.767 0.273,-3.463 0.72,-5.09 0.26,-0.913 0.387,-2.617 0.38,-5.11 0,-4.54 -0.01,-9.533 -0.03,-14.98 -0.007,-0.72 -0.233,-2 -0.68,-3.84 -0.213,-0.897 -0.33,-1.819 -0.35,-2.75 -0.067,-2.873 -0.533,-5.797 -1.4,-8.77 -0.48,-1.64 -0.57,-3.23 -0.97,-4.48 -4.8,-14.96 -13.173,-27.68 -25.12,-38.16 -7.293,-6.393 -14.897,-11.443 -22.81,-15.15 -6.087,-2.847 -13.423,-4.843 -22.01,-5.99 -3.687,-0.493 -6.55,-0.657 -8.59,-0.49 -3.447,0.293 -6.297,0.683 -8.55,1.17 -1.64,0.353 -2.707,0.567 -3.2,0.64 -1.56,0.233 -2.623,0.433 -3.19,0.6 -9.92,2.973 -18.887,7.923 -26.9,14.85 -13.23,11.43 -19.26,27.26 -21.91,44.37 -1.833,11.867 -3.82,22.3 -5.96,31.3 -0.176,0.749 0.524,1.409 1.262,1.187 0.095,-0.029 0.185,-0.072 0.268,-0.127 15.23,-10.15 24,-16.63 37.3,-23.02 4.667,-2.233 9.633,-3.893 14.9,-4.98 5.48,-1.127 10.677,-1.103 15.59,0.07 7.32,1.76 13.557,5.623 18.71,11.59 4.587,5.313 7.807,11.243 9.66,17.79 0.36,1.253 0.927,3.557 1.7,6.91 0.647,2.807 1.03,5.147 1.15,7.02 1.273,19.653 -1.863,37.467 -9.41,53.44 -5.447,11.547 -12.52,22.373 -21.22,32.48 -14.39,16.72 -25.32,27.84 -43.95,46.56 -18.25,18.33 -36.04,37.72 -52.57,59.16 -14.307,18.56 -25.593,38.01 -33.86,58.35 -3.327,8.18 -6.2,18.883 -8.62,32.11 -0.327,1.793 -0.483,3.42 -0.47,4.88 0.01,2.23 -1.04,4.18 -0.98,6.45 0.053,2 -0.083,5.13 -0.41,9.39 -0.5,6.49 -0.07,10.9 0.45,19.53 0.12,1.967 0.31,3.45 0.57,4.45 0.51,2 0.31,3.85 0.67,5.97 3.407,20.007 10.9,38.437 22.48,55.29 21.35,31.07 52.84,53.48 88.84,64.01 4.333,1.273 9.87,2.557 16.61,3.85 7.107,1.36 12.74,2.177 16.9,2.45 4.507,0.293 8.1,0.6 10.78,0.92 7.013,0.847 14.543,0.857 22.59,0.03 4.693,-0.48 8.48,-0.753 11.36,-0.82 3.733,-0.087 7.513,-0.497 11.34,-1.23 4.14,-0.79 9.41,-0.8 13.83,-2.25 0.565,-0.179 1.145,-0.293 1.73,-0.34 3.187,-0.233 6.53,-0.873 10.03,-1.92 0.325,-0.1 0.661,-0.157 1,-0.17 2.287,-0.12 4.563,-0.677 6.83,-1.67 0.39,-0.165 0.803,-0.26 1.22,-0.28 1.56,-0.06 3.227,-0.423 5,-1.09 1.153,-0.44 2.66,-0.867 4.52,-1.28 2.45,-0.54 4.19,-1.33 6.16,-1.89 4.06,-1.153 10.733,-3.57 20.02,-7.25 31.07,-12.31 72.832,-31.74 98.882,-52.37 3.554,-2.813 6.587,-5.36 9.1,-7.64 0.334,-0.3 0.774,-0.567 1.32,-0.8 0.231,-0.092 0.439,-0.232 0.61,-0.41 1.547,-1.58 3.667,-3.493 6.36,-5.74 1.834,-1.527 3.927,-3.44 6.28,-5.74 8.694,-8.493 14.1,-13.92 16.22,-16.28 14.954,-16.633 27.164,-34.917 36.63,-54.85 1.094,-2.307 1.957,-4.633 2.59,-6.98 0.098,-0.388 -0.261,-0.737 -0.646,-0.627 -0.063,0.018 -0.122,0.047 -0.174,0.087 -5.86,4.54 -11.95,10.86 -18.39,15.23 -14.24,9.673 -29.353,17.263 -45.34,22.77 -3.726,1.28 -6.03,2.117 -6.91,2.51 -0.244,0.112 -0.505,0.18 -0.77,0.2 -1.653,0.153 -3.356,0.703 -5.11,1.65 -0.317,0.165 -0.663,0.27 -1.02,0.31 -2.24,0.22 -4.256,0.8 -6.05,1.74 -0.367,0.197 -0.779,0.3 -1.2,0.3 -2.726,0.007 -5.436,0.59 -8.13,1.75 -0.304,0.132 -0.632,0.214 -0.97,0.24 -3.113,0.22 -6.083,0.817 -8.91,1.79 -0.338,0.119 -0.688,0.187 -1.04,0.2 -3.766,0.147 -7.12,0.76 -10.06,1.84 -0.266,0.093 -0.537,0.16 -0.81,0.2 l -26.34,3.36 c -0.059,0.007 -0.117,0.02 -0.17,0.04 -1.013,0.42 -1.643,0.63 -1.89,0.63 -4.193,0.02 -8.976,0.303 -14.35,0.85 -0.384,0.04 -0.758,0.138 -1.11,0.29 -3.35,1.46 -7.32,0.58 -10.64,1.3 -1.533,0.34 -2.666,0.563 -3.4,0.67 -8.846,1.3 -18.413,3.247 -28.7,5.84 -9.86,2.487 -18.746,5.607 -26.66,9.36 -2.64,1.25 -4.31,2.36 -6.67,3.29 -0.305,0.127 -0.634,-0.124 -0.591,-0.453 0.013,-0.098 0.059,-0.189 0.131,-0.257 1.02,-1 5.497,-4.93 13.43,-11.79 5.074,-4.393 10.134,-8.167 15.18,-11.32 12.634,-7.887 25.944,-14.407 39.93,-19.56 4.887,-1.8 10.854,-3.807 17.9,-6.02 7.2,-2.267 21.7,-6.467 43.5,-12.6 13.327,-3.747 26.367,-8.477 39.12,-14.19 18.167,-8.147 34.734,-18.74 49.7,-31.78 z"
                       style="fill:#000000;fill-opacity:0.99;fill-rule:nonzero;stroke:none"
                       id="path73" />
                  </g>
                </g>
                <g
                   id="g75">
                  <g
                     id="g77"
                     transform="matrix(-1.0000119,0,0,0.9999959,573.02456,-0.12729948)">
                    <path
                       d="m 547.301,265.995 -1.98,4.06 c -0.54,0.087 -0.727,0.313 -0.56,0.68 l -1.03,2.05 -0.63,1.18 c -0.407,0.087 -0.534,0.437 -0.38,1.05 l -13.15,21.48 c -5.534,7.853 -11.474,15.413 -17.82,22.68 l -2.07,2.15 c -1.04,0.747 -1.93,1.777 -2.67,3.09 l -14.02,13.48 c -0.153,0.153 -0.328,0.287 -0.52,0.4 -0.554,0.327 -1.064,0.71 -1.53,1.15 -4.18,3.933 -8.58,7.61 -13.2,11.03 -10.16,7.7 -20.754,14.703 -31.78,21.01 -9.907,5.667 -20.317,10.6 -31.23,14.8 -11.287,4.347 -22.17,8.157 -32.65,11.43 -37.55,11.74 -114.531,42.215 -145.681,58.705 -11.8,6.24 -24.67,14.9 -33.46,24.51 -4.84,5.3 -7.883,9.343 -9.13,12.13 -0.9,2 -1.613,3.257 -2.14,3.77 -0.426,0.406 -0.689,0.957 -0.74,1.55 -0.153,1.853 -0.62,3.187 -1.4,4 -0.136,0.147 -0.38,0.092 -0.439,-0.099 -0.01,-0.033 -0.014,-0.067 -0.011,-0.101 0.18,-2.86 0.307,-4.407 0.38,-4.64 0.833,-2.66 1.363,-5.16 1.59,-7.5 0.26,-2.79 1.31,-4.11 1.76,-6.45 0.147,-0.753 0.387,-1.617 0.72,-2.59 4.32,-12.553 11.457,-23.323 21.41,-32.31 4.213,-3.807 8.987,-7.623 14.32,-11.45 15.307,-10.987 31.407,-20.373 48.3,-28.16 25.62,-11.81 98.111,-42.475 123.211,-52.885 13.7,-5.693 27.113,-12.56 40.24,-20.6 2.833,-1.74 5.86,-3.847 9.08,-6.32 2.933,-2.26 5.833,-4.537 8.7,-6.83 l 6.54,-5.15 1.31,-1.95 c 0.024,-0.039 0.082,-0.036 0.103,0.005 0.006,0.011 0.008,0.023 0.007,0.035 0.006,0.267 0.11,0.333 0.31,0.2 0.012,-0.006 0.023,-0.013 0.03,-0.02 l 12.02,-12.07 c 0.209,-0.209 0.354,-0.473 0.42,-0.76 0.126,-0.533 0.22,-0.863 0.28,-0.99 0.06,-0.133 0.123,-0.227 0.19,-0.28 0.122,-0.08 0.285,0.003 0.293,0.149 0.001,0.028 -0.003,0.055 -0.013,0.081 -0.087,0.187 -0.137,0.353 -0.15,0.5 -0.02,0.139 0.123,0.241 0.257,0.183 0.028,-0.012 0.053,-0.03 0.073,-0.053 l 13.06,-16.08 c 0.973,-1.107 1.913,-2.267 2.82,-3.48 13.106,-17.593 22.856,-36.89 29.25,-57.89 2.02,-6.633 3.726,-13.307 5.12,-20.02 2.013,-10.173 3.286,-18.123 3.82,-23.85 0.96,-10.36 2.3,-19.98 1.82,-31.03 0.18,-0.753 0.176,-1.497 -0.01,-2.23 l -0.05,-0.69 0.2,-5.68 c 0.006,-0.493 -0.057,-0.75 -0.19,-0.77 -0.387,-0.04 -0.684,0.12 -0.89,0.48 -2.147,3.767 -4.39,7.107 -6.73,10.02 -21.34,26.65 -49.02,47.67 -77.49,66.32 l -5.68,3.62 -31.28,19.37 c -16.654,9.527 -33.367,18.97 -50.14,28.33 -41.93,23.41 -127.671,69.675 -160.281,104.805 -3.16,3.4 -7.033,7.937 -11.62,13.61 -8.93,11.05 -16.21,24.11 -21.71,36.81 -0.767,1.76 -1.527,3.493 -2.28,5.2 -0.687,1.54 -1.353,3.313 -2,5.32 -2.227,6.827 -3.943,13.747 -5.15,20.76 -0.067,0.367 -0.093,1.143 -0.08,2.33 0.007,0.43 -0.061,0.86 -0.2,1.27 -1.12,3.31 -0.73,6.59 -1.18,9.91 -0.413,3.1 -0.63,5.013 -0.65,5.74 -0.14,5.073 0.343,11.48 1.45,19.22 0.253,1.8 0.443,3.2 0.57,4.2 0.115,0.945 0.208,1.676 0.21,1.65 4.693,20.92 15.54,38 32.54,51.24 4.36,3.393 9.163,6.19 14.41,8.39 0.307,0.127 0.77,0.397 1.39,0.81 0.085,0.046 0.097,0.17 0.021,0.224 -0.035,0.025 -0.081,0.027 -0.121,0.006 -11.087,-3.66 -21.14,-8.823 -30.16,-15.49 -17.55,-12.99 -30.35,-33.01 -35.68,-53.77 -1.22,-4.76 -1.887,-7.233 -2,-7.42 -0.243,-0.42 -0.377,-0.894 -0.39,-1.38 -0.04,-1.32 -0.443,-3.763 -1.21,-7.33 -0.5,-2.333 -0.833,-4.75 -1,-7.25 -0.633,-9.207 -0.797,-15.907 -0.49,-20.1 0.493,-6.773 0.703,-10.48 0.63,-11.12 -0.027,-0.578 0.01,-1.162 0.11,-1.74 l 1.99,-11.83 c 0.013,-0.046 0.027,-0.09 0.04,-0.13 0.96,-2.727 1.58,-5.18 1.86,-7.36 0.08,-0.604 0.238,-1.192 0.47,-1.75 0.847,-1.967 1.347,-3.697 1.5,-5.19 0.053,-0.456 0.192,-0.897 0.41,-1.3 0.787,-1.467 1.297,-2.933 1.53,-4.4 0.04,-0.265 0.117,-0.521 0.23,-0.76 0.393,-0.853 1.413,-3.447 3.06,-7.78 4.83,-12.7 12.25,-25 20.63,-36.47 10.547,-14.427 22.257,-27.373 35.13,-38.84 21.287,-18.96 44.747,-36.257 70.38,-51.89 30.41,-18.54 108.841,-56.365 141.581,-76.755 13.66,-8.5 28.77,-18.803 45.33,-30.91 26.47,-19.36 49.53,-42.78 66.07,-70.65 6.133,-10.333 10.71,-21.207 13.73,-32.62 0.326,-1.233 0.503,-2.253 0.53,-3.06 0.06,-1.64 1.08,-2.4 0.95,-3.97 -0.134,-1.56 0.096,-3.257 0.69,-5.09 0.145,-0.438 0.223,-0.896 0.23,-1.36 0.12,-5.267 0.156,-10.667 0.11,-16.2 0,-0.473 0.046,-0.83 0.14,-1.07 0.195,-0.51 0.87,-0.617 1.214,-0.192 0.074,0.09 0.123,0.197 0.146,0.312 0.35,1.71 1.07,2.41 1.76,3.77 3.8,7.453 5.963,12 6.49,13.64 0.86,2.66 1.456,4.193 1.79,4.6 0.175,0.221 0.276,0.487 0.29,0.76 0.04,0.56 0.383,1.69 1.03,3.39 0.453,1.193 0.816,2.28 1.09,3.26 1.366,4.887 2.21,7.773 2.53,8.66 0.46,1.28 0.09,2.39 0.76,3.33 0.96,1.34 0.17,3.27 1.24,4.44 0.46,0.5 0.32,2.01 0.56,3.02 1.286,5.273 2.233,9.777 2.84,13.51 0.38,2.32 0.823,4.707 1.33,7.16 0.253,1.24 0.59,3.643 1.01,7.21 0.56,4.72 1.006,7.727 1.34,9.02 0.232,0.902 0.329,1.835 0.29,2.77 -0.114,2.667 -0.024,5.057 0.27,7.17 1,7.14 0.66,15.61 1.06,21.48 0.246,3.567 0.22,7.19 -0.08,10.87 -0.43,5.24 -0.16,11.73 -1.01,17.95 -0.24,1.747 -0.317,4.107 -0.23,7.08 0.026,0.782 -0.072,1.558 -0.29,2.3 -0.5,1.667 -0.75,3.21 -0.75,4.63 0,2.2 -0.9,3.93 -0.92,6.13 -0.007,0.753 -0.087,1.573 -0.24,2.46 -4.234,24.613 -11.36,48.37 -21.38,71.27 -0.086,0.197 -0.219,0.375 -0.39,0.52 z"
                       style="fill:#000000;fill-opacity:0.99;fill-rule:nonzero;stroke:none"
                       id="path79" />
                  </g>
                </g>
              </g>
              <g
                 id="g81"
                 transform="matrix(1.0000119,0,0,0.9999959,25.248001,-0.12729948)">
                <path
                   d="m 521.968,605.139 c -19.611,4.133 -32.877,1.336 -39.797,-8.39 -6.921,-9.727 -8.32,-23.013 -4.2,-39.86 2.557,-10.45 7.562,-24.001 15.017,-40.653 7.454,-16.653 16.559,-34.406 27.311,-53.263 10.752,-18.855 22.292,-36.906 34.625,-54.156 12.334,-17.249 24.549,-31.782 36.649,-43.597 12.098,-11.813 23.051,-18.754 32.855,-20.821 5.471,-1.152 9.78,-0.499 12.926,1.962 3.143,2.463 3.91,6.988 2.297,13.576 -1.444,5.905 -7.025,15.51 -16.743,28.818 -9.717,13.307 -21.073,28.627 -34.07,45.961 -12.996,17.332 -24.973,35.005 -35.931,53.015 -10.958,18.011 -18.276,34.538 -21.956,49.59 -3.534,14.445 -3.328,23.538 0.619,27.273 3.948,3.736 10.824,4.571 20.63,2.504 15.155,-3.193 33.535,-14.393 55.141,-33.597 21.608,-19.205 46.719,-50.136 75.331,-92.791 l 7.359,8.789 c -25.378,43.269 -52.824,78.57 -82.339,105.902 -29.514,27.335 -58.089,43.913 -85.724,49.738 z M 694.032,300.16 c -8.468,1.784 -15.638,1.283 -21.51,-1.5 -5.873,-2.782 -7.704,-8.682 -5.5,-17.692 2.722,-11.132 10.822,-21.779 24.3,-31.944 13.477,-10.165 26.525,-16.579 39.143,-19.238 7.886,-1.662 14.169,-1.263 18.852,1.197 4.682,2.461 5.857,8.462 3.522,18.003 -2.345,9.59 -9.731,19.885 -22.152,30.879 -12.423,10.998 -24.641,17.763 -36.655,20.295 z m -70.671,445.194 c -11.142,2.347 -20.671,1.125 -28.587,-3.67 -7.917,-4.794 -9.986,-14.917 -6.207,-30.363 3.557,-14.537 10.873,-28.469 21.954,-41.79 11.079,-13.322 24.61,-26.3 40.594,-38.933 15.984,-12.634 32.775,-24.683 50.375,-36.15 17.602,-11.463 34.645,-22.381 51.133,-32.75 7.903,-13.3 15.805,-27.461 23.708,-42.485 7.9,-15.023 15.857,-31.134 23.871,-48.335 -20.491,23.278 -40.928,43.312 -61.31,60.104 -20.383,16.792 -39.488,27.067 -57.317,30.825 -17.828,3.757 -30.424,0.38 -37.787,-10.133 -7.363,-10.515 -8.488,-26.22 -3.376,-47.119 5.89,-24.079 17.325,-47.925 34.303,-71.541 16.98,-23.615 36.857,-45.685 59.633,-66.213 22.778,-20.53 46.002,-37.703 69.674,-51.525 23.673,-13.824 45.313,-22.8 64.925,-26.934 14.263,-3.006 24.32,-2.647 30.18,1.073 5.85,3.72 7.94,8.99 6.28,15.804 -1.34,5.453 -3.95,10.097 -7.85,13.934 -3.9,3.839 -6.35,6.078 -7.354,6.721 -3.234,-4.059 -6.996,-6.389 -11.288,-6.994 -4.29,-0.602 -9.556,-0.248 -15.796,1.067 -17.383,3.665 -35.32,12.185 -53.811,25.562 -18.491,13.377 -35.781,29.192 -51.872,47.449 -16.091,18.258 -29.759,36.543 -41.001,54.856 -11.244,18.312 -18.532,34.284 -21.867,47.913 -2.222,9.086 -1.91,15.592 0.934,19.515 2.846,3.926 7.163,5.278 12.957,4.056 12.481,-2.63 29.662,-14.113 51.549,-34.454 21.883,-20.34 43.961,-44.061 66.231,-71.16 1.782,-3.822 3.367,-7.28 4.757,-10.376 1.391,-3.093 2.645,-6.05 3.755,-8.87 8.903,-19.112 17.531,-33.641 25.881,-43.587 8.352,-9.948 18.099,-16.096 29.243,-18.444 2.227,-0.469 4.958,-0.829 8.192,-1.08 3.23,-0.25 6.74,-0.344 10.53,-0.281 -2,8.176 -7.51,22.05 -16.522,41.618 -9.013,19.564 -20.337,42.525 -33.972,68.883 -13.634,26.358 -28.296,53.469 -43.992,81.339 15.262,-8.82 31.331,-20.069 48.205,-33.752 16.875,-13.681 33.191,-29.402 48.951,-47.156 15.76,-17.756 29.03,-36.606 39.83,-56.548 l 9.03,9.731 c -12.24,22.402 -27.94,43.806 -47.09,64.217 -19.16,20.411 -38.957,38.696 -59.396,54.853 -20.438,16.157 -38.845,29.194 -55.221,39.107 -19.37,32.522 -39.104,62.641 -59.199,90.361 -20.097,27.719 -39.863,50.628 -59.296,68.728 -19.434,18.101 -38.29,29.075 -56.564,32.927 z m 4.995,-30.783 c 8.023,-1.692 20.943,-11.74 38.761,-30.146 17.819,-18.406 39.474,-47.745 64.968,-88.019 -18.494,11.653 -35.704,23.25 -51.632,34.794 -15.928,11.543 -29.294,22.978 -40.097,34.304 -10.801,11.325 -17.481,22.213 -20.037,32.663 -1.444,5.904 -1.359,10.305 0.26,13.195 1.62,2.889 4.211,3.959 7.777,3.209 z M 1128.02,470.947 c -17.38,3.663 -29.56,2.028 -36.53,-4.904 -6.97,-6.934 -8.78,-17.215 -5.45,-30.845 2.22,-9.085 6.14,-19.069 11.76,-29.948 5.63,-10.881 11.27,-21.873 16.95,-32.98 5.67,-11.106 9.68,-21.432 12.01,-30.972 2.45,-9.994 1.8,-16.429 -1.93,-19.304 -3.74,-2.877 -8.72,-3.657 -14.97,-2.341 -13.37,2.818 -28.43,11.27 -45.2,25.361 -16.76,14.092 -33.77,30.924 -51.03,50.507 -17.263,19.58 -33.913,39.677 -49.943,60.292 -16.04,20.616 -30.07,39.086 -42.09,55.408 -8.47,1.785 -16.13,1.999 -22.99,0.643 -6.852,-1.358 -12.065,-5.106 -15.637,-11.248 1.003,-2.366 5.26,-9.834 12.774,-22.406 7.513,-12.571 16.143,-27.532 25.883,-44.879 9.74,-17.349 19,-35.354 27.8,-54.012 8.78,-18.656 14.96,-35.253 18.51,-49.791 4.01,-4.292 9.7,-8.937 17.05,-13.933 7.35,-4.998 14.59,-8.248 21.723,-9.75 15.6,-3.288 21.73,1.883 18.4,15.513 -1.33,5.45 -4.31,13.727 -8.93,24.826 -4.61,11.097 -10.37,23.837 -17.273,38.218 15.483,-18.343 31.853,-36.013 49.113,-53.008 17.26,-16.996 34.44,-31.496 51.54,-43.503 17.1,-12.006 33.23,-19.605 48.38,-22.801 19.17,-4.039 31.71,-0.433 37.62,10.818 5.91,11.249 6.93,24.825 3.04,40.724 -3.34,13.631 -8.68,26.821 -16.02,39.572 -7.35,12.752 -14.42,24.799 -21.21,36.14 -6.79,11.341 -11.41,22.01 -13.85,32.005 -1.78,7.268 -1.36,12.027 1.26,14.275 2.62,2.249 5.94,2.949 9.95,2.104 10.7,-2.255 23.12,-9.825 37.26,-22.718 14.15,-12.892 28.43,-28.506 42.85,-46.842 14.41,-18.333 48.7,-47.428 48.7,-47.428 -14.82,24.237 -30.37,46.796 -46.68,67.686 -16.31,20.89 -33.07,38.426 -50.28,52.608 -17.21,14.184 -34.73,23.155 -52.56,26.913 z"
                   style="fill:#000000;fill-opacity:1;fill-rule:nonzero;stroke:none"
                   id="path83" />
              </g>
            </g>
          </g>
        </g>
      </g>
    </g>
  </g>
</svg>
