<?xml version="1.0" encoding="utf-8"?>
<svg xmlns="http://www.w3.org/2000/svg" viewBox="-25.2477 0.1273 1302.7877 746.3841" width="1303.33px" height="747.549px" xmlns:bx="https://boxy-svg.com">
  <defs>
    <bx:export>
      <bx:file format="pdf" path="無題.pdf">
        <bx:page/>
      </bx:file>
    </bx:export>
  </defs>
  <g style="" transform="matrix(-1, 0, 0, 1, 547.7700276936594, 0)">
    <path fill-opacity="0.992" d="M 479.292 400.64 C 479.499 400.767 479.696 400.64 479.882 400.26 L 480.392 399.76 L 481.152 399.41 L 482.942 397.72 C 483.389 397.667 483.592 397.537 483.552 397.33 C 491.099 390.89 498.236 384.01 504.962 376.69 C 505.289 376.81 505.512 376.593 505.632 376.04 L 506.012 375.72 C 506.352 375.733 506.552 375.5 506.612 375.02 C 506.719 374.887 506.846 374.783 506.992 374.71 C 507.199 374.83 507.376 374.813 507.522 374.66 C 507.762 374.393 507.789 374.177 507.602 374.01 C 507.936 374.097 508.199 374.02 508.392 373.78 C 508.586 373.54 508.632 373.28 508.532 373 L 508.782 372.7 C 508.982 372.893 509.179 372.907 509.372 372.74 C 509.586 372.553 509.609 372.28 509.442 371.92 L 517.332 362.74 C 517.552 362.693 517.699 362.62 517.772 362.52 C 517.906 362.333 517.912 362.143 517.792 361.95 L 518.022 361.69 C 518.116 361.697 518.206 361.693 518.292 361.68 C 518.399 361.656 518.474 361.564 518.472 361.46 L 518.492 361.03 L 519.052 360.28 C 519.932 359.527 520.552 358.71 520.912 357.83 C 533.092 343.037 543.596 327.47 552.422 311.13 C 555.336 305.743 557.909 300.42 560.142 295.16 C 560.255 294.89 560.617 294.843 560.795 295.075 C 560.84 295.134 560.867 295.206 560.872 295.28 C 561.086 298.253 561.162 300.923 561.102 303.29 C 560.756 315.717 560.309 323.947 559.762 327.98 C 559.242 331.867 558.889 334.64 558.702 336.3 C 558.316 339.713 557.936 342.487 557.562 344.62 C 554.002 365.113 548.696 385.263 541.642 405.07 C 535.009 423.69 526.856 441.867 517.182 459.6 C 515.869 462 514.826 463.83 514.052 465.09 C 512.332 467.897 511.279 469.72 510.892 470.56 C 509.702 473.15 507.932 475.3 505.892 478.52 C 502.986 483.133 500.679 486.583 498.972 488.87 C 498.706 489.23 498.469 489.61 498.262 490.01 C 498.039 490.437 497.856 490.763 497.772 490.88 C 493.126 497.327 487.992 504.043 482.372 511.03 C 481.406 512.243 480.386 513.38 479.312 514.44 C 479.047 514.699 478.808 514.991 478.602 515.31 C 476.582 518.34 473.362 521.23 471.002 523.96 C 466.756 528.887 462.549 533.243 458.382 537.03 C 450.829 543.897 446.852 547.5 446.452 547.84 C 426.692 564.88 393.913 579.203 374.82 590.81 C 354.84 602.957 333.947 612.96 312.14 620.82 C 310.4 621.447 309.44 621.813 309.26 621.92 C 307.14 623.13 305.51 622.8 303.35 624 C 302.45 624.507 301.45 624.82 300.35 624.94 C 299.263 625.06 297.917 625.553 296.31 626.42 C 295.933 626.619 295.527 626.75 295.11 626.81 L 293.29 627.04 C 292.774 627.106 292.276 627.265 291.82 627.51 C 290.06 628.45 288.183 628.967 286.19 629.06 C 285.823 629.08 284.673 629.497 282.74 630.31 C 282.083 630.582 281.393 630.757 280.69 630.83 C 278.837 631.017 276.81 631.553 274.61 632.44 C 273.994 632.685 273.346 632.827 272.69 632.86 C 270.303 632.98 267.833 633.543 265.28 634.55 C 264.823 634.729 264.34 634.83 263.85 634.85 C 261.243 634.95 258.38 635.543 255.26 636.63 C 254.81 636.789 254.333 636.873 253.85 636.88 C 249.39 636.953 245.31 637.523 241.61 638.59 C 240.854 638.802 240.072 638.9 239.29 638.88 C 236.623 638.793 234.44 638.893 232.74 639.18 C 230.653 639.533 228.483 639.75 226.23 639.83 C 214.603 640.21 202.653 640.227 190.38 639.88 C 185.94 639.75 182.19 638.72 177.66 638.9 C 177.521 638.907 177.383 638.897 177.25 638.87 L 164.91 636.57 L 164.9 636.57 L 155.52 634.71 C 155.48 634.703 155.443 634.693 155.41 634.68 C 152.61 633.64 150.403 633.043 148.79 632.89 C 148.493 632.857 148.204 632.769 147.94 632.63 C 147.047 632.15 144.867 631.443 141.4 630.51 C 137.093 629.35 130.157 626.797 120.59 622.85 C 109.943 618.463 99.89 613.55 90.43 608.11 C 83.697 604.237 76.287 599.28 68.2 593.24 C 57.367 585.153 47.677 575.76 39.13 565.06 C 29.217 552.66 20.983 538.847 14.43 523.62 C 8.643 510.167 4.89 498.117 3.17 487.47 C 2.13 481.05 1.52 477.543 1.34 476.95 C 1.211 476.521 1.115 475.756 1.07 474.8 L 0 450.6 L 0 448.56 C 0.3 443.98 -0.33 439.05 0.61 434.66 C 1.21 431.87 1.02 429.66 1.09 426.76 C 1.103 426.257 1.198 425.76 1.37 425.29 C 1.903 423.843 2.153 422.473 2.12 421.18 C 2.06 419.01 3.03 417.67 3.03 415.52 C 3.02 413.57 4.01 412.34 4.13 410.37 C 4.143 410.117 4.297 409.417 4.59 408.27 C 6.797 399.643 9.607 391.303 13.02 383.25 C 17.6 372.45 22.727 362.34 28.4 352.92 C 42.727 329.12 60.017 308.323 80.27 290.53 C 90.183 281.823 100.783 273.343 112.07 265.09 C 136.19 247.443 149.75 237.497 152.75 235.25 C 162.297 228.11 171.567 220.457 180.56 212.29 C 192.1 201.82 199.52 191.74 205.25 177.48 C 208.01 170.587 209.847 165.19 210.76 161.29 C 210.853 160.871 210.913 160.449 210.94 160.03 C 211.06 158.07 211.393 156.237 211.94 154.53 C 212.099 154.026 212.18 153.504 212.18 152.98 C 212.18 152.927 212.18 149.733 212.18 143.4 C 212.187 140.953 212.037 139.217 211.73 138.19 C 211.05 135.85 211.16 133.96 210.11 131.36 C 204.97 118.71 191.36 113.19 178.32 116.24 C 167.24 118.83 158.05 125.65 149.15 133.16 C 142.87 138.453 137.417 143.077 132.79 147.03 C 118.49 159.243 103.577 170.08 88.05 179.54 C 76.73 186.433 65.697 191.843 54.95 195.77 C 51.94 196.87 48.89 197.34 46.05 198.62 C 45.997 198.647 45.94 198.667 45.88 198.68 L 35.74 200.87 C 35.574 200.903 35.406 200.917 35.24 200.91 C 33.133 200.803 31.177 201.017 29.37 201.55 C 29.065 201.643 28.745 201.687 28.42 201.68 L 21.59 201.57 C 21.421 201.558 21.329 201.368 21.423 201.227 C 21.439 201.205 21.458 201.185 21.48 201.17 C 30.193 195.643 38.097 189.163 45.19 181.73 C 53.85 172.67 61.32 163.43 66.93 152.94 C 70.303 146.62 72.893 139.427 74.7 131.36 C 74.987 130.06 75.13 128.823 75.13 127.65 C 75.13 126.41 76.1 124.51 76.06 122.75 C 76 119.99 76.127 117.6 76.44 115.58 C 77.44 109.25 76.92 102.9 77.15 96.91 C 77.19 95.75 77.363 94.66 77.67 93.64 C 78.34 91.38 77.76 88.94 78.51 86.82 C 79.07 85.26 78.93 83.56 79.27 82.07 C 84.69 58.263 96.997 39.213 116.19 24.92 C 129.05 15.347 143.693 8.31 160.12 3.81 C 163.53 2.88 168.57 2.39 171.62 1.31 C 172.129 1.125 172.665 1.04 173.2 1.06 C 175.92 1.153 178.497 0.933 180.93 0.4 C 181.555 0.26 182.195 0.187 182.84 0.18 C 188.767 0.113 192.82 0.11 195 0.17 C 213.627 0.657 231.087 5.31 247.38 14.13 C 268.02 25.3 285.26 40.67 296.08 61.85 C 301.427 72.323 305.013 82.797 306.84 93.27 C 307.047 94.483 307.45 96.82 308.05 100.28 C 308.55 103.133 308.847 105.483 308.94 107.33 C 309.4 116.557 309.37 125.923 308.85 135.43 C 308.77 136.877 308.573 138.05 308.26 138.95 C 307.75 140.4 307.95 141.93 307.65 143.69 C 305.923 153.937 303.033 163.957 298.98 173.75 C 292.78 188.737 285.013 202.803 275.68 215.95 C 262.3 234.797 246.63 252.537 228.67 269.17 C 214.583 282.223 205.92 290.2 202.68 293.1 C 195.18 299.82 189.283 305.487 184.99 310.1 C 177.097 318.593 171.703 324.747 168.81 328.56 C 163.663 335.347 158.867 342.463 154.42 349.91 C 154.235 350.175 153.833 350.141 153.695 349.848 C 153.653 349.758 153.644 349.656 153.67 349.56 C 156.837 340.513 160.953 331.24 166.02 321.74 C 176.71 301.7 189.37 282.89 204.67 261.75 C 215.583 246.677 223.253 235.907 227.68 229.44 C 234.473 219.533 240.073 210.22 244.48 201.5 C 248.073 194.38 252.54 184.587 257.88 172.12 C 261.507 163.653 264.217 155.46 266.01 147.54 C 266.67 144.593 267.017 142.05 267.05 139.91 C 267.083 138.143 267.323 136.447 267.77 134.82 C 268.03 133.907 268.157 132.203 268.15 129.71 C 268.15 125.17 268.14 120.177 268.12 114.73 C 268.113 114.01 267.887 112.73 267.44 110.89 C 267.227 109.993 267.11 109.071 267.09 108.14 C 267.023 105.267 266.557 102.343 265.69 99.37 C 265.21 97.73 265.12 96.14 264.72 94.89 C 259.92 79.93 251.547 67.21 239.6 56.73 C 232.307 50.337 224.703 45.287 216.79 41.58 C 210.703 38.733 203.367 36.737 194.78 35.59 C 191.093 35.097 188.23 34.933 186.19 35.1 C 182.743 35.393 179.893 35.783 177.64 36.27 C 176 36.623 174.933 36.837 174.44 36.91 C 172.88 37.143 171.817 37.343 171.25 37.51 C 161.33 40.483 152.363 45.433 144.35 52.36 C 131.12 63.79 125.09 79.62 122.44 96.73 C 120.607 108.597 118.62 119.03 116.48 128.03 C 116.304 128.779 117.004 129.439 117.742 129.217 C 117.837 129.188 117.927 129.145 118.01 129.09 C 133.24 118.94 142.01 112.46 155.31 106.07 C 159.977 103.837 164.943 102.177 170.21 101.09 C 175.69 99.963 180.887 99.987 185.8 101.16 C 193.12 102.92 199.357 106.783 204.51 112.75 C 209.097 118.063 212.317 123.993 214.17 130.54 C 214.53 131.793 215.097 134.097 215.87 137.45 C 216.517 140.257 216.9 142.597 217.02 144.47 C 218.293 164.123 215.157 181.937 207.61 197.91 C 202.163 209.457 195.09 220.283 186.39 230.39 C 172 247.11 161.07 258.23 142.44 276.95 C 124.19 295.28 106.4 314.67 89.87 336.11 C 75.563 354.67 64.277 374.12 56.01 394.46 C 52.683 402.64 49.81 413.343 47.39 426.57 C 47.063 428.363 46.907 429.99 46.92 431.45 C 46.93 433.68 45.88 435.63 45.94 437.9 C 45.993 439.9 45.857 443.03 45.53 447.29 C 45.03 453.78 45.46 458.19 45.98 466.82 C 46.1 468.787 46.29 470.27 46.55 471.27 C 47.06 473.27 46.86 475.12 47.22 477.24 C 50.627 497.247 58.12 515.677 69.7 532.53 C 91.05 563.6 122.54 586.01 158.54 596.54 C 162.873 597.813 168.41 599.097 175.15 600.39 C 182.257 601.75 187.89 602.567 192.05 602.84 C 196.557 603.133 200.15 603.44 202.83 603.76 C 209.843 604.607 217.373 604.617 225.42 603.79 C 230.113 603.31 233.9 603.037 236.78 602.97 C 240.513 602.883 244.293 602.473 248.12 601.74 C 252.26 600.95 257.53 600.94 261.95 599.49 C 262.515 599.311 263.095 599.197 263.68 599.15 C 266.867 598.917 270.21 598.277 273.71 597.23 C 274.035 597.13 274.371 597.073 274.71 597.06 C 276.997 596.94 279.273 596.383 281.54 595.39 C 281.93 595.225 282.343 595.13 282.76 595.11 C 284.32 595.05 285.987 594.687 287.76 594.02 C 288.913 593.58 290.42 593.153 292.28 592.74 C 294.73 592.2 296.47 591.41 298.44 590.85 C 302.5 589.697 309.173 587.28 318.46 583.6 C 349.53 571.29 391.292 551.86 417.342 531.23 C 420.896 528.417 423.929 525.87 426.442 523.59 C 426.776 523.29 427.216 523.023 427.762 522.79 C 427.993 522.698 428.201 522.558 428.372 522.38 C 429.919 520.8 432.039 518.887 434.732 516.64 C 436.566 515.113 438.659 513.2 441.012 510.9 C 449.706 502.407 455.112 496.98 457.232 494.62 C 472.186 477.987 484.396 459.703 493.862 439.77 C 494.956 437.463 495.819 435.137 496.452 432.79 C 496.55 432.402 496.191 432.053 495.806 432.163 C 495.743 432.181 495.684 432.21 495.632 432.25 C 489.772 436.79 483.682 443.11 477.242 447.48 C 463.002 457.153 447.889 464.743 431.902 470.25 C 428.176 471.53 425.872 472.367 424.992 472.76 C 424.748 472.872 424.487 472.94 424.222 472.96 C 422.569 473.113 420.866 473.663 419.112 474.61 C 418.795 474.775 418.449 474.88 418.092 474.92 C 415.852 475.14 413.836 475.72 412.042 476.66 C 411.675 476.857 411.263 476.96 410.842 476.96 C 408.116 476.967 405.406 477.55 402.712 478.71 C 402.408 478.842 402.08 478.924 401.742 478.95 C 398.629 479.17 395.659 479.767 392.832 480.74 C 392.494 480.859 392.144 480.927 391.792 480.94 C 388.026 481.087 384.672 481.7 381.732 482.78 C 381.466 482.873 381.195 482.94 380.922 482.98 L 354.582 486.34 C 354.523 486.347 354.465 486.36 354.412 486.38 C 353.399 486.8 352.769 487.01 352.522 487.01 C 348.329 487.03 343.546 487.313 338.172 487.86 C 337.788 487.9 337.414 487.998 337.062 488.15 C 333.712 489.61 329.742 488.73 326.422 489.45 C 324.889 489.79 323.756 490.013 323.022 490.12 C 314.176 491.42 304.609 493.367 294.322 495.96 C 284.462 498.447 275.576 501.567 267.662 505.32 C 265.022 506.57 263.352 507.68 260.992 508.61 C 260.687 508.737 260.358 508.486 260.401 508.157 C 260.414 508.059 260.46 507.968 260.532 507.9 C 261.552 506.9 266.029 502.97 273.962 496.11 C 279.036 491.717 284.096 487.943 289.142 484.79 C 301.776 476.903 315.086 470.383 329.072 465.23 C 333.959 463.43 339.926 461.423 346.972 459.21 C 354.172 456.943 368.672 452.743 390.472 446.61 C 403.799 442.863 416.839 438.133 429.592 432.42 C 447.759 424.273 464.326 413.68 479.292 400.64 Z" style="fill: rgb(255, 255, 255);"/>
    <path fill-opacity="0.992" d="M 547.301 265.995 L 545.321 270.055 C 544.781 270.142 544.594 270.368 544.761 270.735 L 543.731 272.785 L 543.101 273.965 C 542.694 274.052 542.567 274.402 542.721 275.015 L 529.571 296.495 C 524.037 304.348 518.097 311.908 511.751 319.175 L 509.681 321.325 C 508.641 322.072 507.751 323.102 507.011 324.415 L 492.991 337.895 C 492.838 338.048 492.663 338.182 492.471 338.295 C 491.917 338.622 491.407 339.005 490.941 339.445 C 486.761 343.378 482.361 347.055 477.741 350.475 C 467.581 358.175 456.987 365.178 445.961 371.485 C 436.054 377.152 425.644 382.085 414.731 386.285 C 403.444 390.632 392.561 394.442 382.081 397.715 C 344.531 409.455 267.55 439.93 236.4 456.42 C 224.6 462.66 211.73 471.32 202.94 480.93 C 198.1 486.23 195.057 490.273 193.81 493.06 C 192.91 495.06 192.197 496.317 191.67 496.83 C 191.244 497.236 190.981 497.787 190.93 498.38 C 190.777 500.233 190.31 501.567 189.53 502.38 C 189.394 502.527 189.15 502.472 189.091 502.281 C 189.081 502.248 189.077 502.214 189.08 502.18 C 189.26 499.32 189.387 497.773 189.46 497.54 C 190.293 494.88 190.823 492.38 191.05 490.04 C 191.31 487.25 192.36 485.93 192.81 483.59 C 192.957 482.837 193.197 481.973 193.53 481 C 197.85 468.447 204.987 457.677 214.94 448.69 C 219.153 444.883 223.927 441.067 229.26 437.24 C 244.567 426.253 260.667 416.867 277.56 409.08 C 303.18 397.27 375.671 366.605 400.771 356.195 C 414.471 350.502 427.884 343.635 441.011 335.595 C 443.844 333.855 446.871 331.748 450.091 329.275 C 453.024 327.015 455.924 324.738 458.791 322.445 L 465.331 317.295 L 466.641 315.345 C 466.665 315.306 466.723 315.309 466.744 315.35 C 466.75 315.361 466.752 315.373 466.751 315.385 C 466.757 315.652 466.861 315.718 467.061 315.585 C 467.073 315.579 467.084 315.572 467.091 315.565 L 479.111 303.495 C 479.32 303.286 479.465 303.022 479.531 302.735 C 479.657 302.202 479.751 301.872 479.811 301.745 C 479.871 301.612 479.934 301.518 480.001 301.465 C 480.123 301.385 480.286 301.468 480.294 301.614 C 480.295 301.642 480.291 301.669 480.281 301.695 C 480.194 301.882 480.144 302.048 480.131 302.195 C 480.111 302.334 480.254 302.436 480.388 302.378 C 480.416 302.366 480.441 302.348 480.461 302.325 L 493.521 286.245 C 494.494 285.138 495.434 283.978 496.341 282.765 C 509.447 265.172 519.197 245.875 525.591 224.875 C 527.611 218.242 529.317 211.568 530.711 204.855 C 532.724 194.682 533.997 186.732 534.531 181.005 C 535.491 170.645 536.831 161.025 536.351 149.975 C 536.531 149.222 536.527 148.478 536.341 147.745 L 536.291 147.055 L 536.491 141.375 C 536.497 140.882 536.434 140.625 536.301 140.605 C 535.914 140.565 535.617 140.725 535.411 141.085 C 533.264 144.852 531.021 148.192 528.681 151.105 C 507.341 177.755 479.661 198.775 451.191 217.425 L 445.511 221.045 L 414.231 240.415 C 397.577 249.942 380.864 259.385 364.091 268.745 C 322.161 292.155 236.42 338.42 203.81 373.55 C 200.65 376.95 196.777 381.487 192.19 387.16 C 183.26 398.21 175.98 411.27 170.48 423.97 C 169.713 425.73 168.953 427.463 168.2 429.17 C 167.513 430.71 166.847 432.483 166.2 434.49 C 163.973 441.317 162.257 448.237 161.05 455.25 C 160.983 455.617 160.957 456.393 160.97 457.58 C 160.977 458.01 160.909 458.44 160.77 458.85 C 159.65 462.16 160.04 465.44 159.59 468.76 C 159.177 471.86 158.96 473.773 158.94 474.5 C 158.8 479.573 159.283 485.98 160.39 493.72 C 160.643 495.52 160.833 496.92 160.96 497.92 C 161.075 498.865 161.168 499.596 161.17 499.57 C 165.863 520.49 176.71 537.57 193.71 550.81 C 198.07 554.203 202.873 557 208.12 559.2 C 208.427 559.327 208.89 559.597 209.51 560.01 C 209.595 560.056 209.607 560.18 209.531 560.234 C 209.496 560.259 209.45 560.261 209.41 560.24 C 198.323 556.58 188.27 551.417 179.25 544.75 C 161.7 531.76 148.9 511.74 143.57 490.98 C 142.35 486.22 141.683 483.747 141.57 483.56 C 141.327 483.14 141.193 482.666 141.18 482.18 C 141.14 480.86 140.737 478.417 139.97 474.85 C 139.47 472.517 139.137 470.1 138.97 467.6 C 138.337 458.393 138.173 451.693 138.48 447.5 C 138.973 440.727 139.183 437.02 139.11 436.38 C 139.083 435.802 139.12 435.218 139.22 434.64 L 141.21 422.81 C 141.223 422.764 141.237 422.72 141.25 422.68 C 142.21 419.953 142.83 417.5 143.11 415.32 C 143.19 414.716 143.348 414.128 143.58 413.57 C 144.427 411.603 144.927 409.873 145.08 408.38 C 145.133 407.924 145.272 407.483 145.49 407.08 C 146.277 405.613 146.787 404.147 147.02 402.68 C 147.06 402.415 147.137 402.159 147.25 401.92 C 147.643 401.067 148.663 398.473 150.31 394.14 C 155.14 381.44 162.56 369.14 170.94 357.67 C 181.487 343.243 193.197 330.297 206.07 318.83 C 227.357 299.87 250.817 282.573 276.45 266.94 C 306.86 248.4 385.291 210.575 418.031 190.185 C 431.691 181.685 446.801 171.382 463.361 159.275 C 489.831 139.915 512.891 116.495 529.431 88.625 C 535.564 78.292 540.141 67.418 543.161 56.005 C 543.487 54.772 543.664 53.752 543.691 52.945 C 543.751 51.305 544.771 50.545 544.641 48.975 C 544.507 47.415 544.737 45.718 545.331 43.885 C 545.476 43.447 545.554 42.989 545.561 42.525 C 545.681 37.258 545.717 31.858 545.671 26.325 C 545.671 25.852 545.717 25.495 545.811 25.255 C 546.006 24.745 546.681 24.638 547.025 25.063 C 547.099 25.153 547.148 25.26 547.171 25.375 C 547.521 27.085 548.241 27.785 548.931 29.145 C 552.731 36.598 554.894 41.145 555.421 42.785 C 556.281 45.445 556.877 46.978 557.211 47.385 C 557.386 47.606 557.487 47.872 557.501 48.145 C 557.541 48.705 557.884 49.835 558.531 51.535 C 558.984 52.728 559.347 53.815 559.621 54.795 C 560.987 59.682 561.831 62.568 562.151 63.455 C 562.611 64.735 562.241 65.845 562.911 66.785 C 563.871 68.125 563.081 70.055 564.151 71.225 C 564.611 71.725 564.471 73.235 564.711 74.245 C 565.997 79.518 566.944 84.022 567.551 87.755 C 567.931 90.075 568.374 92.462 568.881 94.915 C 569.134 96.155 569.471 98.558 569.891 102.125 C 570.451 106.845 570.897 109.852 571.231 111.145 C 571.463 112.047 571.56 112.98 571.521 113.915 C 571.407 116.582 571.497 118.972 571.791 121.085 C 572.791 128.225 572.451 136.695 572.851 142.565 C 573.097 146.132 573.071 149.755 572.771 153.435 C 572.341 158.675 572.611 165.165 571.761 171.385 C 571.521 173.132 571.444 175.492 571.531 178.465 C 571.557 179.247 571.459 180.023 571.241 180.765 C 570.741 182.432 570.491 183.975 570.491 185.395 C 570.491 187.595 569.591 189.325 569.571 191.525 C 569.564 192.278 569.484 193.098 569.331 193.985 C 565.097 218.598 557.971 242.355 547.951 265.255 C 547.865 265.452 547.732 265.63 547.561 265.775 L 547.301 265.995 Z" style="fill: rgb(255, 255, 255);"/>
  </g>
  <path d="M 521.968 605.139 C 502.357 609.272 489.091 606.475 482.171 596.749 C 475.25 587.022 473.851 573.736 477.971 556.889 C 480.528 546.439 485.533 532.888 492.988 516.236 C 500.442 499.583 509.547 481.83 520.299 462.973 C 531.051 444.118 542.591 426.067 554.924 408.817 C 567.258 391.568 579.473 377.035 591.573 365.22 C 603.671 353.407 614.624 346.466 624.428 344.399 C 629.899 343.247 634.208 343.9 637.354 346.361 C 640.497 348.824 641.264 353.349 639.651 359.937 C 638.207 365.842 632.626 375.447 622.908 388.755 C 613.191 402.062 601.835 417.382 588.838 434.716 C 575.842 452.048 563.865 469.721 552.907 487.731 C 541.949 505.742 534.631 522.269 530.951 537.321 C 527.417 551.766 527.623 560.859 531.57 564.594 C 535.518 568.33 542.394 569.165 552.2 567.098 C 567.355 563.905 585.735 552.705 607.341 533.501 C 628.949 514.296 654.06 483.365 682.672 440.71 L 690.031 449.499 C 664.653 492.768 637.207 528.069 607.692 555.401 C 578.178 582.736 549.603 599.314 521.968 605.139 Z M 694.032 300.16 C 685.564 301.944 678.394 301.443 672.522 298.66 C 666.649 295.878 664.818 289.978 667.022 280.968 C 669.744 269.836 677.844 259.189 691.322 249.024 C 704.799 238.859 717.847 232.445 730.465 229.786 C 738.351 228.124 744.634 228.523 749.317 230.983 C 753.999 233.444 755.174 239.445 752.839 248.986 C 750.494 258.576 743.108 268.871 730.687 279.865 C 718.264 290.863 706.046 297.628 694.032 300.16 Z M 623.361 745.354 C 612.219 747.701 602.69 746.479 594.774 741.684 C 586.857 736.89 584.788 726.767 588.567 711.321 C 592.124 696.784 599.44 682.852 610.521 669.531 C 621.6 656.209 635.131 643.231 651.115 630.598 C 667.099 617.964 683.89 605.915 701.49 594.448 C 719.092 582.985 736.135 572.067 752.623 561.698 C 760.526 548.398 768.428 534.237 776.331 519.213 C 784.231 504.19 792.188 488.079 800.202 470.878 C 779.711 494.156 759.274 514.19 738.892 530.982 C 718.509 547.774 699.404 558.049 681.575 561.807 C 663.747 565.564 651.151 562.187 643.788 551.674 C 636.425 541.159 635.3 525.454 640.412 504.555 C 646.302 480.476 657.737 456.63 674.715 433.014 C 691.695 409.399 711.572 387.329 734.348 366.801 C 757.126 346.271 780.35 329.098 804.022 315.276 C 827.695 301.452 849.335 292.476 868.947 288.342 C 883.21 285.336 893.267 285.695 899.127 289.415 C 904.977 293.135 907.067 298.405 905.407 305.219 C 904.067 310.672 901.457 315.316 897.557 319.153 C 893.657 322.992 891.207 325.231 890.203 325.874 C 886.969 321.815 883.207 319.485 878.915 318.88 C 874.625 318.278 869.359 318.632 863.119 319.947 C 845.736 323.612 827.799 332.132 809.308 345.509 C 790.817 358.886 773.527 374.701 757.436 392.958 C 741.345 411.216 727.677 429.501 716.435 447.814 C 705.191 466.126 697.903 482.098 694.568 495.727 C 692.346 504.813 692.658 511.319 695.502 515.242 C 698.348 519.168 702.665 520.52 708.459 519.298 C 720.94 516.668 738.121 505.185 760.008 484.844 C 781.891 464.504 803.969 440.783 826.239 413.684 C 828.021 409.862 829.606 406.404 830.996 403.308 C 832.387 400.215 833.641 397.258 834.751 394.438 C 843.654 375.326 852.282 360.797 860.632 350.851 C 868.984 340.903 878.731 334.755 889.875 332.407 C 892.102 331.938 894.833 331.578 898.067 331.327 C 901.297 331.077 904.807 330.983 908.597 331.046 C 906.597 339.222 901.087 353.096 892.075 372.664 C 883.062 392.228 871.738 415.189 858.103 441.547 C 844.469 467.905 829.807 495.016 814.111 522.886 C 829.373 514.066 845.442 502.817 862.316 489.134 C 879.191 475.453 895.507 459.732 911.267 441.978 C 927.027 424.222 940.297 405.372 951.097 385.43 L 960.127 395.161 C 947.887 417.563 932.187 438.967 913.037 459.378 C 893.877 479.789 874.08 498.074 853.641 514.231 C 833.203 530.388 814.796 543.425 798.42 553.338 C 779.05 585.86 759.316 615.979 739.221 643.699 C 719.124 671.418 699.358 694.327 679.925 712.427 C 660.491 730.528 641.635 741.502 623.361 745.354 Z M 628.356 714.571 C 636.379 712.879 649.299 702.831 667.117 684.425 C 684.936 666.019 706.591 636.68 732.085 596.406 C 713.591 608.059 696.381 619.656 680.453 631.2 C 664.525 642.743 651.159 654.178 640.356 665.504 C 629.555 676.829 622.875 687.717 620.319 698.167 C 618.875 704.071 618.96 708.472 620.579 711.362 C 622.199 714.251 624.79 715.321 628.356 714.571 Z M 1128.02 470.947 C 1110.64 474.61 1098.46 472.975 1091.49 466.043 C 1084.52 459.109 1082.71 448.828 1086.04 435.198 C 1088.26 426.113 1092.18 416.129 1097.8 405.25 C 1103.43 394.369 1109.07 383.377 1114.75 372.27 C 1120.42 361.164 1124.43 350.838 1126.76 341.298 C 1129.21 331.304 1128.56 324.869 1124.83 321.994 C 1121.09 319.117 1116.11 318.337 1109.86 319.653 C 1096.49 322.471 1081.43 330.923 1064.66 345.014 C 1047.9 359.106 1030.89 375.938 1013.63 395.521 C 996.367 415.101 979.717 435.198 963.687 455.813 C 947.647 476.429 933.617 494.899 921.597 511.221 C 913.127 513.006 905.467 513.22 898.607 511.864 C 891.755 510.506 886.542 506.758 882.97 500.616 C 883.973 498.25 888.23 490.782 895.744 478.21 C 903.257 465.639 911.887 450.678 921.627 433.331 C 931.367 415.982 940.627 397.977 949.427 379.319 C 958.207 360.663 964.387 344.066 967.937 329.528 C 971.947 325.236 977.637 320.591 984.987 315.595 C 992.337 310.597 999.577 307.347 1006.71 305.845 C 1022.31 302.557 1028.44 307.728 1025.11 321.358 C 1023.78 326.808 1020.8 335.085 1016.18 346.184 C 1011.57 357.281 1005.81 370.021 998.907 384.402 C 1014.39 366.059 1030.76 348.389 1048.02 331.394 C 1065.28 314.398 1082.46 299.898 1099.56 287.891 C 1116.66 275.885 1132.79 268.286 1147.94 265.09 C 1167.11 261.051 1179.65 264.657 1185.56 275.908 C 1191.47 287.157 1192.49 300.733 1188.6 316.632 C 1185.26 330.263 1179.92 343.453 1172.58 356.204 C 1165.23 368.956 1158.16 381.003 1151.37 392.344 C 1144.58 403.685 1139.96 414.354 1137.52 424.349 C 1135.74 431.617 1136.16 436.376 1138.78 438.624 C 1141.4 440.873 1144.72 441.573 1148.73 440.728 C 1159.43 438.473 1171.85 430.903 1185.99 418.01 C 1200.14 405.118 1214.42 389.504 1228.84 371.168 C 1243.25 352.835 1277.54 323.74 1277.54 323.74 C 1262.72 347.977 1247.17 370.536 1230.86 391.426 C 1214.55 412.316 1197.79 429.852 1180.58 444.034 C 1163.37 458.218 1145.85 467.189 1128.02 470.947 Z" style="text-wrap-mode: nowrap; fill: rgb(255, 255, 255);" transform="matrix(1, 0, 0, 1, 2.842170943040401e-14, 0)"/>
</svg>